<svg width="24" height="24" viewBox="0 0 24 24" fill="none" xmlns="http://www.w3.org/2000/svg">
<path d="M14.0001 2C9.58917 2 6.00017 5.589 6.00017 10C6.00017 12.043 6.77017 13.91 8.03617 15.325L2.14917 21.145L2.85217 21.855L8.74717 16.028C10.201 17.3007 12.0679 18.0015 14.0001 18C18.4111 18 22.0001 14.411 22.0001 10C22.0001 5.589 18.4111 2 14.0001 2ZM14.0001 17C10.1401 17 7.00017 13.86 7.00017 10C7.00017 6.14 10.1401 3 14.0001 3C17.8601 3 21.0001 6.14 21.0001 10C21.0001 13.86 17.8601 17 14.0001 17Z" fill="white"/>
</svg>
