<svg width="57" height="59" viewBox="0 0 57 59" fill="none" xmlns="http://www.w3.org/2000/svg">
<path d="M50.6662 33.2723C50.5955 33.3127 50.1603 33.5211 50.0394 33.5679C49.152 33.9637 48.3555 33.8983 47.4676 33.376C46.8297 33.0009 46.2377 32.1757 46.006 31.8859C45.8231 31.6572 45.6017 31.3577 45.284 31.0737C44.6943 30.5434 43.8966 30.194 42.5159 30.2196C42.4049 30.2216 42.2952 30.1962 42.1971 30.1443C40.8022 29.4066 38.3992 28.5071 36.1026 28.6229C35.6474 28.6536 35.5819 28.3226 35.4317 27.9521C35.014 26.8358 34.7097 26.3189 34.4262 25.9144C34.0653 25.3995 33.9068 25.3955 33.6076 25.3115C33.2745 25.2179 32.9134 25.1826 32.6919 24.7964C32.6648 24.7491 32.5561 24.5448 32.6793 24.401C32.9842 24.0455 33.83 23.5561 32.5595 22.8388C31.7849 22.4015 32.1298 22.1202 32.2586 22.0539C32.4369 21.9619 32.7443 21.8894 33.1118 21.9626C33.4795 22.0359 33.9072 22.255 34.3264 22.7459C34.7407 23.2313 36.1394 25.4962 36.9894 27.2157C37.0008 27.2389 37.0193 27.3627 37.1757 27.3778C37.4127 27.4009 37.8189 27.4015 37.902 27.4086C38.033 27.4198 38.0346 27.3141 38.0217 27.2712C36.8167 23.2723 35.4307 18.2953 33.0251 14.8324C32.9763 14.733 33.0181 14.629 33.1698 14.644C35.3225 14.8644 35.9471 17.9282 37.2087 19.9407C38.8294 22.5278 39.7796 21.514 39.9334 19.769C40.0408 18.5491 39.719 16.9966 38.8692 16.1261C38.667 15.8801 38.3092 15.5686 38.1595 15.3844C38.1058 15.3182 38.0978 15.2068 38.2407 15.1712C38.2997 15.1564 38.384 15.1505 38.4988 15.1547C39.4936 15.2312 40.8758 16.0364 41.4566 16.933C42.6483 18.7729 42.5594 19.7617 42.3961 20.4138C42.1167 21.5292 41.5955 22.1704 42.2417 23.934C43.5207 27.4251 43.1862 26.6968 42.4582 28.8927C42.3958 29.0596 42.4982 29.1841 42.6422 29.1708C44.317 29.0171 44.8286 29.3963 45.1902 29.5901C45.2269 29.6098 45.2584 29.6398 45.284 29.6341C45.3483 29.6115 45.3712 29.5305 45.3823 29.4213C45.5198 28.4791 45.3235 28.0812 45.1086 27.5261C44.9826 27.2001 44.8398 26.8325 44.7947 26.4744C44.7217 26.0148 44.8048 25.7562 44.9433 25.4123C45.179 24.8261 45.3196 24.3719 45.1279 23.4897C44.7044 21.628 43.1786 18.5625 42.204 16.7969C42.1234 16.6446 41.4558 15.3837 41.351 15.1992C41.2795 15.0731 41.3098 14.9196 41.3631 14.8002C41.4073 14.7011 41.4807 14.5025 41.4807 14.5025C41.7134 13.9092 41.8368 13.4561 41.9068 12.9383C42.1326 11.2687 41.6949 10.081 40.4873 9.08733C39.3666 8.16515 37.3704 7.7569 34.7123 7.90666L34.1497 7.9386C31.6462 8.08151 28.8088 8.24348 26.6737 8.06693C24.6066 7.89607 23.3995 7.56907 22.9828 7.06714C22.8477 6.90416 22.7953 6.72373 22.8185 6.49894C22.8648 6.04967 23.1368 5.60279 23.5648 5.273C23.9349 4.98766 24.3726 4.83416 24.6824 4.88267C25.2386 4.90538 25.8486 5.21844 26.5547 5.58096C27.1873 5.90581 27.9045 6.27391 28.7384 6.5136C29.4435 6.71633 30.1414 6.80618 30.8117 6.78061C31.4443 6.75648 32.0639 6.62408 32.6532 6.38686C32.9024 6.28649 33.0816 6.17146 33.1593 6.10352C33.1995 6.06839 33.2146 5.99837 33.166 5.93289C33.137 5.89354 33.1004 5.89377 32.9711 5.8937C32.0836 5.89354 31.2931 5.75374 30.7912 5.63608C30.2362 5.49588 30.1885 5.36126 30.1937 5.30988C30.2057 5.19095 30.4983 5.07783 30.8326 5.06286C32.4704 4.98926 33.7246 5.07792 34.5545 5.13631C34.8374 5.1563 35.0608 5.17207 35.2221 5.17534C35.3874 5.17868 35.6047 5.17239 35.6136 5.17136C35.6631 5.16658 35.6774 5.13503 35.6812 5.12172C35.6905 5.09011 35.6761 5.05258 35.6576 5.03793C35.0802 4.56117 33.2043 3.84162 31.0643 3.46261C27.6213 2.85274 25.3147 3.35315 23.9863 3.88066C23.7217 3.98564 23.0409 4.28062 22.4355 4.7498C21.7683 5.26686 21.3959 5.83036 21.3287 6.4243C21.2391 7.21936 21.8159 8.2465 25.0747 8.62424C28.525 9.0243 31.7484 8.9673 34.5922 8.91747C34.8895 8.91218 35.1811 8.90713 35.4665 8.90265C37.268 8.87643 38.7926 9.31012 39.4467 10.0392C40.2 10.8791 40.2449 12.0034 40.0544 12.711C39.9994 12.9149 39.8875 13.222 39.7534 13.4164C39.5466 13.6963 39.3196 13.7816 38.9026 13.6715C37.5714 13.3198 35.1966 12.5374 34.0452 12.1488C33.0198 11.8026 32.2099 11.5292 31.523 11.3608C29.484 10.8611 28.8473 11.192 27.4786 12.0571C27.1486 12.2655 26.8132 12.494 26.4248 12.7584C25.8629 13.1409 25.226 13.5747 24.3789 14.1035C23.8679 14.4224 23.1982 14.7911 22.489 15.1812C21.7679 15.5781 21.0222 15.9884 20.2919 16.4261C17.9494 17.8012 17.5755 19.6449 17.1428 21.7798C16.8357 23.2946 16.4875 25.0115 15.3306 26.7502C15.2038 26.941 14.201 28.1573 13.9876 28.5026C13.1951 29.7765 12.7694 30.8759 12.9373 32.7245C13.0628 34.1065 12.59 35.3094 12.1329 36.4729C11.773 37.3884 11.4333 38.2532 11.3772 39.1793C11.3348 39.7519 11.3554 40.2871 11.3755 40.8047C11.4087 41.6635 11.4215 42.5193 11.1594 43.2607C10.9582 43.8297 10.4479 44.39 10.25 44.9407C9.99541 45.6485 9.81717 46.6558 9.81717 47.5809C9.80112 48.3602 9.22217 48.933 8.60942 49.5397C8.06932 50.0742 7.50414 50.6358 7.29855 51.3627C7.27114 51.4596 7.2529 51.5331 7.21714 51.5908C7.16376 51.6769 7.08386 51.732 6.97673 51.808C6.76953 51.9552 6.51901 52.1488 6.2453 52.6993C6.0143 53.1639 6.08065 53.9924 6.29199 54.3952C6.32456 54.4574 6.41562 54.6037 6.55565 54.6197C6.65052 54.6307 6.74588 54.5803 6.84011 54.4707C6.84011 54.4707 7.43858 53.7783 7.67182 53.5705C7.75363 53.4998 7.85106 53.5127 7.90674 53.5544C7.97245 53.6038 7.98743 53.6863 7.9468 53.7752C7.92306 53.8267 7.5623 54.4692 7.35152 55.0107L7.34657 55.0241C7.3179 55.1009 7.28238 55.1964 7.33351 55.2757C7.3833 55.3526 7.50047 55.3948 7.70304 55.4082C7.79235 55.4116 7.87846 55.4133 7.96178 55.4133C9.07079 55.4133 9.65398 55.1187 9.9538 54.8594C10.0708 54.7343 10.0941 54.6802 10.1326 54.5904C10.1428 54.5669 10.154 54.5405 10.1695 54.507C10.3913 53.9122 10.5401 53.2245 10.5577 52.7113C10.5577 52.4938 10.6194 52.432 10.7689 52.2825C11.3527 51.6934 11.3533 50.9153 11.354 50.1626C11.3545 49.4709 11.355 48.7555 11.8099 48.1916C13.0502 46.8037 13.6947 45.1813 14.3181 43.6125C14.961 41.9938 15.6259 40.3202 16.9455 38.9245C17.278 38.583 17.6039 38.3968 17.819 38.4314C17.924 38.4474 18.0073 38.5148 18.0669 38.6326C18.3493 39.155 18.2645 39.8576 18.1822 40.5372C18.0893 41.3054 18.0016 42.031 18.4086 42.5052C18.6805 42.8576 18.7539 43.2287 18.62 43.5805C18.4462 44.136 17.9172 45.8266 16.6559 46.5748C16.6254 46.5928 16.2932 46.8295 16.1893 46.93C16.135 46.9828 16.0953 47.0535 16.0495 47.1354C15.939 47.3326 15.8016 47.5779 15.3681 47.7061C14.8933 47.8256 14.4466 48.1138 14.2027 48.4588C13.5355 49.4011 13.5642 50.5679 13.6269 50.9024C13.6512 51.0321 13.695 51.2026 13.8191 51.3718C13.8949 51.4753 13.9828 51.5369 14.0734 51.5499C14.1479 51.5606 14.2224 51.5391 14.2928 51.4855C14.3663 51.4295 14.453 51.3292 14.5627 51.2019C14.735 51.0027 14.9494 50.7545 15.2195 50.5561C15.3061 50.4925 15.3914 50.5073 15.442 50.5427C15.4895 50.5758 15.5112 50.6284 15.4975 50.6768C15.4723 50.7648 15.3918 50.8916 15.2896 51.0523C15.16 51.2563 14.9987 51.5103 14.8715 51.8097C14.8399 51.8763 14.8359 51.938 14.8595 51.9925C14.896 52.0775 14.9869 52.1127 15.0142 52.1216C15.817 52.3777 17.0162 52.0736 17.6873 51.443C18.0239 51.1265 18.1875 50.7073 18.1875 50.1614C18.1875 50.0229 18.2535 49.8077 18.3969 49.6644C18.8697 49.2596 19.0655 48.6278 19.2727 47.9588C19.322 47.7999 19.373 47.6355 19.428 47.4733C19.6421 46.8431 19.9242 46.3015 20.6057 45.7054C21.4901 44.8789 21.8897 44.0989 22.1419 43.6184C22.3986 43.1014 22.4548 42.8129 22.6424 42.5115C23.0114 41.9293 24.2572 41.8195 24.7175 42.0911C24.9083 42.204 24.9507 42.3599 24.8438 42.555C24.774 42.6815 24.1169 43.7449 23.8077 44.4715C23.656 44.8281 23.3127 44.9613 23.1085 45.0809C21.8747 45.8021 21.6497 47.1604 21.6138 47.717C21.6026 47.8908 21.6218 48.1224 21.7093 48.2516C21.76 48.3263 21.831 48.3745 21.909 48.3871C21.9861 48.3997 22.0651 48.3773 22.1373 48.3221C22.2094 48.2672 22.8773 47.5929 22.9573 47.5228C23.0678 47.4259 23.1649 47.4421 23.2141 47.4858C23.2666 47.532 23.2885 47.6241 23.2199 47.7257C23.1268 47.8632 22.6656 48.5579 22.7196 48.71C22.8112 48.9673 23.0737 48.9622 23.3366 48.9647C25.4533 48.7851 26.2017 47.2786 26.2017 47.2786C26.253 47.1909 26.3165 47.0751 26.2829 46.7616C26.2224 46.1965 26.089 44.238 27.2213 43.0185C27.5582 42.6447 27.7557 42.8972 27.8322 43.0641C27.9692 43.3639 28.1719 43.8831 28.2871 44.1435C28.5317 44.696 28.699 45.1039 28.9808 45.6508C29.4564 46.5735 30.1711 46.7012 31.0557 46.5901C32.1994 46.4464 32.9881 46.5383 33.7566 46.6139C34.4093 46.6682 34.7701 46.7121 35.2498 46.2735C35.5112 46.0345 36.0127 45.5967 36.3496 45.1205C36.563 44.8191 36.6291 44.6284 36.5752 44.1595C36.4169 41.8053 37.6411 39.7602 39.848 38.6895C40.1791 38.5555 40.5469 38.5966 40.7717 38.8985C41.2668 39.633 42.4182 41.5131 42.4182 43.1089C42.4182 43.2596 42.3589 43.4255 42.2901 43.6176C42.1341 44.0538 41.9399 44.5964 42.3007 45.3367C42.3232 45.9775 42.0859 46.4779 41.8766 46.9195C41.5783 47.5481 41.3429 48.0445 42.1585 48.5336C42.3891 48.6715 42.6882 48.7954 43.0728 48.9119C43.0954 48.9188 43.1179 48.9222 43.1391 48.9222C43.1723 48.9222 43.203 48.914 43.2277 48.8979C43.2559 48.8795 43.2734 48.8528 43.277 48.8229C43.2995 48.6384 43.3213 47.9979 43.3559 47.8468C43.3697 47.7865 43.4008 47.7139 43.4704 47.7098C43.535 47.7061 43.5996 47.7588 43.6179 47.81C43.6829 47.964 43.8489 48.5905 43.8946 48.69C43.9339 48.7755 43.9804 48.8337 44.0429 48.8519C44.3701 48.9463 44.8168 48.384 44.9839 48.0945C45.2723 47.4979 45.154 46.6113 44.6839 45.8388C44.6148 45.6904 44.6049 45.6308 44.6041 45.4958C44.778 44.7926 44.6514 44.4365 44.5174 44.0595C44.4401 43.842 44.3621 43.617 44.327 43.3084C44.2005 42.2012 44.8781 38.6964 44.9418 38.3363C45.057 37.6844 45.1524 37.2194 45.1938 36.7406C45.2338 36.2773 45.0441 35.7347 44.7218 35.3902C44.4264 35.0747 44.0703 34.7855 43.726 34.5057C43.4224 34.259 43.1355 34.0261 42.9009 33.7858C42.5215 33.3971 42.4006 32.83 42.4041 32.6699C42.4055 32.6266 42.4133 32.5989 42.4286 32.5852C42.4405 32.5743 42.4598 32.5702 42.4878 32.5721C43.0104 32.6097 43.4286 32.9562 43.9581 33.3946C44.432 33.7871 44.9692 34.232 45.7217 34.5658C47.2084 35.2252 48.6196 35.1278 50.0371 34.2678C50.6397 33.8405 50.8259 33.474 50.8559 33.4231C50.8936 33.3591 50.8388 33.1736 50.6662 33.2723ZM17.7212 27.3916C17.8074 26.7059 18.3137 25.9753 18.5357 25.1189C18.8522 24.1521 18.9397 22.4626 19.1117 21.1232C19.1974 20.4557 19.4526 20.1732 19.9347 20.1139C20.253 20.0853 20.5847 20.3623 20.7557 21.3054C21.3488 25.1674 22.5086 25.7017 23.1824 26.7246C23.1946 26.7431 23.2062 26.7623 23.2166 26.7818C23.3892 27.1025 23.4445 27.4011 23.1738 27.6176C23.0149 27.7447 22.4869 27.9346 21.5886 27.393C20.5109 26.7432 20.3483 26.0434 18.5615 27.4732C18.5615 27.4732 18.3224 27.6589 18.0932 27.71C17.8991 27.7532 17.6851 27.6779 17.7212 27.3916ZM27.0755 41.5597C27.0112 41.5996 26.9389 41.5723 26.8341 41.5053C26.1244 41.0515 24.1572 40.6937 22.4969 41.3589C20.7885 42.0435 19.224 43.0101 19.1192 41.3206C19.0985 39.8233 19.4175 39.171 18.8968 38.28C18.8968 38.28 18.8745 38.2499 18.8516 38.2135C18.8068 38.1427 18.8611 38.1271 18.8781 38.1257C21.2777 37.9381 21.9182 37.1882 22.0678 36.9259C22.1006 36.8682 22.0574 36.8062 21.9964 36.7993C21.4452 36.7384 18.6968 36.6558 17.5916 36.8156C15.6477 37.0967 14.342 40.0245 14.0895 40.3012C13.7978 40.6209 13.43 40.3762 13.43 40.0848C13.43 39.5963 13.7184 37.2252 13.9099 36.4031C14.2132 35.1018 14.6311 34.1349 15.9005 33.9396C16.7902 33.8027 18.9734 33.5715 18.8232 32.9805C18.6986 32.4919 18.6365 32.1097 18.6353 31.8936C18.6337 31.6049 18.7813 31.5472 19.0736 31.6121C19.2898 31.6601 19.5794 31.7884 19.9506 31.8758C22.6972 32.5221 24.1044 32.0073 25.7413 31.2799C25.7875 31.2593 26.3963 30.9855 26.4334 30.9648C26.7284 30.8005 27.099 31.0973 26.9349 31.4483C26.848 31.6342 26.7303 31.7202 26.4783 31.9629C25.9377 32.4835 23.9211 34.1365 25.1359 36.9312C26.0832 39.1102 26.3587 39.6743 27.0308 41.1604C27.1396 41.4011 27.1555 41.5098 27.0755 41.5597ZM32.1815 45.33C32.0476 45.5383 31.8412 45.6862 31.4399 45.6862C30.9465 45.6862 30.5973 45.5383 30.388 45.3153C29.9584 44.8574 29.9049 44.2306 30.0101 43.82C30.0767 43.5601 30.2328 43.3891 30.4001 43.3396C30.4736 43.3152 30.5131 43.3207 30.5495 43.368C30.624 43.4875 30.8907 43.9098 30.9522 43.9976C31.0242 44.1002 31.1545 44.1907 31.2609 44.2332C31.4615 44.3135 31.7175 44.3831 31.8528 44.4447C32.267 44.6235 32.3625 45.0486 32.1815 45.33ZM40.1003 37.6245C40.0482 37.7091 40.0016 37.7227 39.9317 37.7547C37.4437 38.6959 35.4659 41.2358 35.8247 44.2875C35.8318 44.447 35.7821 44.6704 35.632 44.8206C35.632 44.8206 35.1099 45.3511 34.7811 45.5771C34.6688 45.6543 34.5423 45.7173 34.2487 45.6984C33.7885 45.669 33.1404 45.6282 33.1404 45.6282C32.9665 45.5992 33.0409 45.448 33.0541 45.4149C33.0665 45.3833 33.0786 45.3467 33.0881 45.304C33.1823 44.846 33.115 44.2045 32.4714 43.9644C32.3789 43.9123 32.437 43.8274 32.4481 43.7998C32.7244 43.1193 33.07 42.2772 33.3473 41.0965C33.5148 40.3827 33.4119 39.9521 33.1616 39.4389C33.1062 39.3252 33.0337 39.2201 32.9512 39.1245L32.5598 38.6055C32.4506 38.479 32.4792 38.3457 32.6366 38.2895L33.1883 38.1489C33.3229 38.1008 33.31 37.8967 33.1803 37.8639L32.8957 37.7727C32.6263 37.6618 32.4622 37.4468 32.3414 37.2808C32.3215 37.2536 32.2867 37.1985 32.2536 37.1387C32.1931 37.0292 32.1492 36.9113 32.124 36.7888L32.0908 36.6277C32.0871 36.5457 31.9582 36.5447 31.9017 36.6012C31.4665 37.0383 31.3319 37.7092 31.6515 38.2425C32.0992 38.9895 32.0811 38.916 32.48 39.481C32.6118 39.6676 32.6906 39.8195 32.7342 40.004C32.7944 40.2588 32.7773 40.9051 32.6065 41.3663L32.1538 42.7414C31.8805 43.3564 31.5757 43.2081 31.4027 43.093C31.1795 42.9448 30.9717 42.5605 30.859 42.1528C30.859 42.1528 30.5477 41.0049 30.5585 39.4792C30.5378 39.2947 30.4122 38.9934 30.0119 39.2572L28.9469 40.141C28.7965 40.2211 28.5356 40.1772 28.5884 39.8308C28.5884 39.8308 29.3538 36.4163 30.1781 34.4927C30.797 32.9238 30.1081 32.0394 29.2868 31.068C27.9452 29.3559 27.6446 27.0529 30.7687 28.3145C31.6075 28.698 31.9074 28.2008 32.9421 28.1112C33.6843 28.047 33.9283 28.3473 33.9918 28.4744C34.0484 28.588 34.068 28.7137 34.0746 28.7794C34.0775 28.808 34.068 28.8269 34.0367 28.8274C32.2852 28.927 30.1951 30.382 31.8093 32.6652C33.3944 34.902 37.7565 35.6541 39.7046 33.5214C39.7303 33.4929 39.7369 33.4286 39.6977 33.3961C39.6776 33.3793 39.6432 33.3639 39.5977 33.3811C39.1718 33.5425 38.7797 33.6643 38.3862 33.7291C37.4556 33.8822 35.4839 33.7704 34.5519 32.7068C34.0186 32.0984 34.0329 31.3957 34.9343 31.2884C35.4361 31.2481 35.6817 31.3405 35.8991 31.3445C36.4612 31.337 36.5766 30.7746 36.4608 30.5204C36.3644 30.2768 36.1404 29.9823 35.8255 29.7263C35.5347 29.5195 35.692 29.3032 35.8811 29.3084C37.6854 29.4112 39.4103 29.7234 40.0609 31.8892C40.0858 31.9703 40.1299 32.244 40.1988 32.3462C40.3385 32.5533 40.5815 32.7089 40.849 32.9422C41.5039 33.5132 42.0915 34.5312 40.1003 37.6245ZM42.444 36.2853C42.7609 35.6226 43.1912 36.0671 43.3964 36.7945C43.6571 37.7186 43.6945 39.2054 43.5846 39.9721C43.4412 40.9723 42.971 40.772 42.7194 40.4163C42.3222 39.8545 41.8924 39.1068 41.5928 38.5936C41.5837 38.5781 41.575 38.5622 41.5672 38.5458C41.428 38.2573 41.4071 38.0288 41.553 37.8144C41.7031 37.5842 42.2984 36.5899 42.444 36.2853Z" fill="white"/>
</svg>
